# xmcd CD database file
#
# Track frame offsets:
#	150
#	26058
#	44426
#	67994
#	83388
#	100640
#	127668
#	148445
#	170998
#	187555
#	210243
#	225706
#	247238
#
# Disc length: 3579 seconds
#
# Revision: 0
# Processed by: cddbd v1.5.1PL0 Copyright (c) Steve Scherf et al.
# Submitted via: CDex 1.51
#
DISCID=a80df90d
DTITLE=Pierre Pichon - ze Gypsy Blue
DYEAR=2004
DGENRE=Jazz
TTITLE0=Ma Chemise
TTITLE1=Circus Mania
TTITLE2=Koukou 69
TTITLE3=El Matador
TTITLE4=In Space
TTITLE5=Rainy Day
TTITLE6=La Louisiane
TTITLE7=Dark Eyes
TTITLE8=Minor Swing
TTITLE9=Parisian Street
TTITLE10=Si tu Dits
TTITLE11=Nuages
TTITLE12=Chevrolet
EXTD=YEAR: 2004
EXTT0=
EXTT1=
EXTT2=
EXTT3=
EXTT4=
EXTT5=
EXTT6=
EXTT7=
EXTT8=
EXTT9=
EXTT10=
EXTT11=
EXTT12=
PLAYORDER=
